<?xml version="1.0" encoding="iso-8859-1"?>
<!-- Generator: Adobe Illustrator 19.0.0, SVG Export Plug-In . SVG Version: 6.00 Build 0)  -->
<svg version="1.1" id="Layer_1" xmlns="http://www.w3.org/2000/svg" xmlns:xlink="http://www.w3.org/1999/xlink" x="0px" y="0px"
	 viewBox="0 0 511.999 511.999" style="enable-background:new 0 0 511.999 511.999;" xml:space="preserve">
<path style="fill:#59A4FF;" d="M211.279,330.075c-1.527,1.312-30.549,26.241-30.605,45.555
	c-0.054,19.305,13.519,42.823,30.327,52.527c8.697,5.021,16.549,5.345,22.113,1.821c-0.156,0.098-0.307,0.205-0.466,0.297
	l23.298-13.539c5.462-3.174,8.85-9.922,8.876-19.513c0.054-19.314-28.731-77.618-30.246-80.688L211.279,330.075z"/>
<path style="fill:#9BC9FD;" d="M180.675,375.63c0.054-19.314,29.076-44.243,30.605-45.555c1.515,3.069,30.301,61.374,30.246,80.688
	c-0.054,19.305-13.724,27.094-30.524,17.395C194.193,418.453,180.62,394.934,180.675,375.63z"/>
<path style="fill:#C3DFF7;" d="M405.813,172.592c-3.508-2.026-6.911-3.571-10.291-4.957c0.849-4.851,1.357-10.049,1.373-15.653
	c0.147-51.764-36.226-114.789-81.274-140.797C292.956-1.9,272.428-3.112,257.602,5.503l-29.091,16.905
	c-3.847-3.544-7.91-6.629-12.139-9.069c-11.904-6.873-22.688-7.513-30.474-2.989l-31.356,18.223
	c-14.48-5.627-27.447-5.142-37.358,0.618l-59.03,34.304c0.04-0.023,0.082-0.042,0.121-0.064
	c-12.296,7.076-19.932,22.206-19.992,43.742c-0.122,43.235,30.281,95.895,67.884,117.605l240.171,138.663
	c19.025,10.985,36.247,11.941,48.648,4.628c-0.06,0.036-0.111,0.085-0.171,0.119l59.031-34.305
	c12.23-7.107,19.813-22.219,19.873-43.698C473.842,246.976,443.438,194.315,405.813,172.592z"/>
<path style="fill:#D2E7F8;" d="M256.589,45.49c45.048,26.008,81.421,89.034,81.274,140.797c-0.016,5.604-0.524,10.802-1.373,15.653
	c3.382,1.386,6.783,2.931,10.292,4.957c37.625,21.723,68.028,74.384,67.906,117.594c-0.122,43.235-30.725,60.673-68.35,38.951
	L106.167,224.778c-37.604-21.711-68.007-74.372-67.885-117.606c0.122-43.21,30.724-60.649,68.328-38.938
	c2.652,1.531,5.24,3.247,7.806,5.073c0.001-0.393-0.041-0.787-0.04-1.18c0.077-27.184,19.306-38.142,42.963-24.483
	c7.722,4.458,14.923,11.004,21.18,18.727C188.96,34.19,219.99,24.359,256.589,45.49z"/>
<g>
	<polygon style="fill:#C3DFF7;" points="402.534,463.539 396.517,437.524 372.174,435.518 373.946,406.613 349.976,392.775 
		332.292,403.052 326.968,397.37 303.194,411.187 297.056,430.184 321.002,452.552 305.052,470.94 322.575,494.26 341.767,483.107 
		353.3,511.999 370.89,508.951 394.663,495.136 385.366,473.515 	"/>
	<polygon style="fill:#C3DFF7;" points="143.771,291.602 119.429,289.596 121.201,260.692 97.23,246.852 79.547,257.129 
		74.222,251.448 50.448,265.264 44.304,284.257 68.25,306.625 52.306,325.017 69.828,348.337 89.02,337.184 100.547,366.073 
		118.143,363.028 141.918,349.213 132.62,327.592 149.787,317.616 	"/>
</g>
<g>
	<polygon style="fill:#D2E7F8;" points="378.759,477.354 355.102,472.24 370.89,508.951 353.3,511.999 338.185,474.131 
		322.575,494.26 305.052,470.94 321.002,452.552 297.056,430.184 303.194,411.187 327.804,437.443 326.202,406.59 350.173,420.43 
		348.401,449.334 372.742,451.341 	"/>
	<polygon style="fill:#D2E7F8;" points="119.997,305.418 126.014,331.432 102.356,326.317 118.143,363.028 100.547,366.073 
		85.438,328.208 69.828,348.337 52.306,325.017 68.25,306.625 44.304,284.257 50.448,265.264 75.059,291.52 73.457,260.668 
		97.427,274.507 95.655,303.411 	"/>
</g>
<g>
</g>
<g>
</g>
<g>
</g>
<g>
</g>
<g>
</g>
<g>
</g>
<g>
</g>
<g>
</g>
<g>
</g>
<g>
</g>
<g>
</g>
<g>
</g>
<g>
</g>
<g>
</g>
<g>
</g>
</svg>
